Coordinates
version=1
nRows=11
nColumns=63
inDegrees=yes

Units are S.I. units (second, meters, Newtons, ...)
If the header above contains a line with 'inDegrees', this indicates whether rotational values are in degrees (yes) or radians (no).

endheader
time	pelvis_tilt	pelvis_list	pelvis_rotation	pelvis_tx	pelvis_ty	pelvis_tz	hip_flexion_r	hip_adduction_r	hip_rotation_r	knee_angle_r	knee_angle_r_beta	ankle_angle_r	subtalar_angle_r	mtp_angle_r	hip_flexion_l	hip_adduction_l	hip_rotation_l	knee_angle_l	knee_angle_l_beta	ankle_angle_l	subtalar_angle_l	mtp_angle_l	L5_S1_Flex_Ext	L5_S1_Lat_Bending	L5_S1_axial_rotation	L4_L5_Flex_Ext	L4_L5_Lat_Bending	L4_L5_axial_rotation	L3_L4_Flex_Ext	L3_L4_Lat_Bending	L3_L4_axial_rotation	L2_L3_Flex_Ext	L2_L3_Lat_Bending	L2_L3_axial_rotation	L1_L2_Flex_Ext	L1_L2_Lat_Bending	L1_L2_axial_rotation	L1_T12_Flex_Ext	L1_T12_Lat_Bending	L1_T12_axial_rotation	Abs_r3	Abs_r2	Abs_r1	Abs_t1	Abs_t2	neck_flexion	neck_bending	neck_rotation	arm_flex_r	arm_add_r	arm_rot_r	elbow_flex_r	pro_sup_r	wrist_flex_r	wrist_dev_r	arm_flex_l	arm_add_l	arm_rot_l	elbow_flex_l	pro_sup_l	wrist_flex_l	wrist_dev_l
      1.30000000	      1.77856682	     -8.92809029	     17.60578107	     -2.04667177	      0.91062844	      0.33156787	     16.64246550	      3.26073580	    -25.17390097	     25.55804769	      0.44607208	     10.29350993	     -6.10827524	      0.00000000	      6.33383896	     -8.39147892	     17.16434707	     59.04398079	      1.03051187	     -0.43452844	    -17.49457719	      0.00000000	      0.01926900	      0.90463638	     -2.27757418	      0.03578446	      1.20316638	     -2.41992257	      0.03165704	      2.19953288	     -2.41992257	      0.02202254	      2.19953288	     -1.99287741	      0.01789319	      1.84473450	     -1.85052902	      0.01101031	      1.40128175	     -1.70818064	      0.13763655	     10.23342761	    -12.66718433	      0.00000000	      0.00000000	     -0.00000000	      0.00000000	      0.00000000	      7.57738094	    -20.70534960	    123.54767963	     22.49099386	     53.31477219	      0.00000000	      5.00066209	      0.45008245	     -7.46654690	     33.75022438	     19.26760008	     63.32675062	      0.00000000	      5.00066209
      1.33333333	      1.49571325	     -7.92819759	     13.80943339	     -2.01876028	      0.91671538	      0.33978821	     14.08116884	      3.80053496	    -23.41948729	     23.92258452	      0.41752787	     11.11860970	     -2.94488158	      0.00000000	     10.50746925	     -6.47238333	     13.61959280	     64.68835159	      1.12902472	     -3.14542779	    -18.79311962	      0.00000000	      0.01592545	      0.81386571	     -1.50537625	      0.02957515	      1.08244140	     -1.59946227	      0.02616392	      1.97883309	     -1.59946227	      0.01820119	      1.97883309	     -1.31720422	      0.01478837	      1.65963496	     -1.22311821	      0.00909980	      1.26067799	     -1.12903219	      0.11375388	      9.20661172	     -8.37245112	      0.00000000	      0.00000000	     -0.00000000	      0.00000000	      0.00000000	      6.90017330	    -21.89491060	    106.43195212	     20.88955969	     48.58512472	      0.00000000	      5.00042328	     -0.45943992	     -8.65958293	     34.39902372	     21.65721520	     62.45090305	      0.00000000	      5.00042328
      1.36666667	      1.13984610	     -6.87935471	      9.49216678	     -1.99177522	      0.92260049	      0.34806121	     11.47702740	      4.15089026	    -20.84540160	     21.84106209	      0.38119845	     11.41516896	     -0.35561726	      0.00000000	     15.13562061	     -5.06944121	      9.36558701	     68.74973610	      1.19990925	     -3.14476857	    -19.18489534	      0.00000000	      0.01085611	      0.72153889	     -0.64899224	      0.02016089	      0.95964673	     -0.68955425	      0.01783551	      1.75434967	     -0.68955425	      0.01240745	      1.75434967	     -0.56786821	      0.01008099	      1.47136211	     -0.52730619	      0.00620318	      1.11766375	     -0.48674418	      0.07754414	      8.16219227	     -3.60950014	      0.00000000	      0.00000000	     -0.00000000	      0.00000000	      0.00000000	      5.31146690	    -22.60290500	     82.28422553	     20.56740009	     41.33262555	      0.00000000	      5.00025708	     -1.78742248	    -10.18817858	     34.01172680	     25.22275191	     61.18780730	      0.00000000	      5.00025708
      1.40000000	      0.83528126	     -5.86949937	      5.00310695	     -1.96502718	      0.92796125	      0.35630420	      8.69279642	      4.45522128	    -17.09070701	     19.25876064	      0.33612878	     11.02598115	      0.83648650	      0.00000000	     19.86180640	     -4.49173362	      4.80052512	     70.72947366	      1.23446219	     -1.12517504	    -19.30039257	      0.00000000	      0.00435663	      0.62997854	      0.22918880	      0.00809069	      0.83787146	      0.24351310	      0.00715750	      1.53172983	      0.24351310	      0.00497919	      1.53172983	      0.20054020	      0.00404556	      1.28465225	      0.18621590	      0.00248938	      0.97583676	      0.17189160	      0.03111896	      7.12644329	      1.27467933	      0.00000000	      0.00000000	     -0.00000000	      0.00000000	      0.00000000	      3.85589735	    -22.32899182	     58.22666715	     22.19971192	     35.94307838	      0.00000000	      5.00016843	     -3.14640801	    -12.02064919	     34.63242789	     29.15810252	     60.04778725	      0.00000000	      5.00016843
      1.43333333	      0.60552325	     -4.92201100	      0.66591714	     -1.93811917	      0.93243985	      0.36436153	      5.59364095	      4.62760749	    -12.55493217	     16.12462498	      0.28142780	     10.10696293	      1.06334131	      0.00000000	     24.24331419	     -4.80267408	      0.22210444	     70.14145614	      1.22419935	      1.94148695	    -19.30616462	      0.00000000	     -0.00117428	      0.53522767	      1.06967724	     -0.00218075	      0.71185280	      1.13653207	     -0.00192922	      1.30135255	      1.13653207	     -0.00134208	      1.30135255	      0.93596759	     -0.00109044	      1.09143626	      0.86911276	     -0.00067098	      0.82906766	      0.80225793	     -0.00838776	      6.05460243	      5.94922391	      0.00000000	      0.00000000	     -0.00000000	      0.00000000	      0.00000000	      3.60880817	    -21.45583765	     41.04443919	     24.43079809	     35.40083741	      0.00000000	      5.00009972	     -4.39437544	    -13.67388988	     35.19309746	     32.37796668	     58.24267804	      0.00000000	      5.00009972
      1.46666667	      0.41445795	     -4.06548598	     -3.28275906	     -1.91086101	      0.93539842	      0.37210655	      2.21214960	      4.73621913	     -6.34719009	     12.56269072	      0.21926032	      8.51289322	     -1.11109390	      0.00000000	     27.89520988	     -5.78154555	     -4.04604000	     66.82031806	      1.16623456	      5.17847562	    -19.23009253	      0.00000000	     -0.00392980	      0.43739238	      1.81823469	     -0.00729804	      0.58173186	      1.93187436	     -0.00645628	      1.06347583	      1.93187436	     -0.00449137	      1.06347583	      1.59095536	     -0.00364922	      0.89193054	      1.47731569	     -0.00224549	      0.67752080	      1.36367602	     -0.02807020	      4.94787008	     10.11247589	      0.00000000	      0.00000000	     -0.00000000	      0.00000000	      0.00000000	      4.61756847	    -20.75616799	     32.09051237	     26.56578096	     34.36845447	      0.00000000	      5.00008424	     -5.69472583	    -14.88808752	     34.33073235	     34.86799942	     57.39272567	      0.00000000	      5.00008424
      1.50000000	      0.23926506	     -3.08469806	     -6.62303987	     -1.88328069	      0.93639458	      0.37918002	     -1.23719933	      4.21891700	     -0.71728238	      9.13619521	      0.15945669	      7.15787348	     -2.74905011	      0.00000000	     30.63770648	     -6.90255863	     -8.00145585	     60.90493448	      1.06299164	      7.35637331	    -19.06086994	      0.00000000	     -0.00775549	      0.31413596	      2.45081702	     -0.01440272	      0.41780083	      2.60399309	     -0.01274149	      0.76379018	      2.60399309	     -0.00886375	      0.76379018	      2.14446490	     -0.00720175	      0.64058606	      1.99128883	     -0.00443149	      0.48659661	      1.83811277	     -0.05539667	      3.55356884	     13.63070904	      0.00000000	      0.00000000	     -0.00000000	      0.00000000	      0.00000000	      5.93281899	    -19.88034800	     25.45441879	     28.52983692	     33.92137662	      0.00000000	      5.00007020	     -6.54123519	    -15.86243767	     33.66963748	     36.26507172	     56.49673808	      0.00000000	      5.00007020
      1.53333333	      0.04396777	     -2.12916581	     -9.49678043	     -1.85564258	      0.93515491	      0.38540783	     -4.17262095	      3.19704352	      2.74024096	      6.81474716	      0.11893978	      6.97255648	     -1.33209653	      0.00000000	     32.42157134	     -7.99270174	    -11.62320834	     52.84772562	      0.92236681	      7.95917599	    -18.68483175	      0.00000000	     -0.01132681	      0.18724339	      2.95874818	     -0.02103502	      0.24903371	      3.14366994	     -0.01860882	      0.45526359	      3.14366994	     -0.01294541	      0.45526359	      2.58890466	     -0.01051808	      0.38182673	      2.40398290	     -0.00647214	      0.29004002	      2.21906113	     -0.08090628	      2.11813472	     16.45566975	      0.00000000	      0.00000000	     -0.00000000	      0.00000000	      0.00000000	      8.00960205	    -19.34599847	     23.74225206	     29.87188779	     33.83048185	      0.00000000	      5.00006663	     -7.19785913	    -16.55566034	     32.60676196	     37.19256030	     56.10418112	      0.00000000	      5.00006663
      1.56666667	     -0.17573034	     -1.15826973	    -11.57166560	     -1.82722029	      0.93184764	      0.39005024	     -6.64631771	      1.98908421	      5.92090471	      5.43684885	      0.09489091	      7.44067786	     -0.50130010	      0.00000000	     33.17599053	     -8.51243474	    -14.68591099	     43.03854974	      0.75116440	      6.65204576	    -17.71012600	      0.00000000	     -0.01428321	      0.05358868	      3.29501200	     -0.02652536	      0.07127294	      3.50095025	     -0.02346589	      0.13029551	      3.50095025	     -0.01632428	      0.13029551	      2.88313550	     -0.01326339	      0.10927803	      2.67719725	     -0.00816143	      0.08300886	      2.47125900	     -0.10202356	      0.60620583	     18.32586825	      0.00000000	      0.00000000	     -0.00000000	      0.00000000	      0.00000000	      9.47818099	    -18.28793159	     19.64209646	     31.68649920	     33.44817147	      0.00000000	      5.00005870	     -7.91339908	    -16.84640636	     30.15669010	     37.60653138	     55.24529462	      0.00000000	      5.00005870
      1.60000000	     -0.33223308	     -0.48416701	    -13.29470385	     -1.79737992	      0.92707576	      0.39302658	     -8.65103031	      0.79052169	      6.94182842	      5.18665552	      0.09052422	      9.02712239	      2.53162655	      0.00000000	     32.71403803	     -8.73793266	    -17.41930683	     32.39613323	      0.56541919	      4.15862871	    -15.38535609	      0.00000000	     -0.01659983	     -0.04443590	      3.53787697	     -0.03082754	     -0.05909975	      3.75899428	     -0.02727186	     -0.10804145	      3.75899428	     -0.01897194	     -0.10804145	      3.09564235	     -0.01541460	     -0.09061369	      2.87452504	     -0.00948514	     -0.06883121	      2.65340773	     -0.11857091	     -0.50266779	     19.67661033	      0.00000000	      0.00000000	     -0.00000000	      0.00000000	      0.00000000	     10.93497732	    -17.62426164	     18.04765834	     33.11383126	     33.42316942	      0.00000000	      5.00005225	     -8.49765501	    -16.96719936	     28.44017513	     37.38671066	     54.63554655	      0.00000000	      5.00005225
      1.63333333	     -0.40897594	     -0.18505885	    -14.67409984	     -1.76519564	      0.92137270	      0.39401967	    -10.23059597	     -0.34522101	      5.31477293	      6.04596494	      0.10552199	     11.41581797	      7.83348991	      0.00000000	     31.54379958	     -8.82000785	    -19.87479235	     22.86768168	      0.39911634	      1.42717348	    -11.55142080	      0.00000000	     -0.01576995	     -0.09393163	      3.69995936	     -0.02928637	     -0.12492907	      3.93120682	     -0.02590844	     -0.22838537	      3.93120682	     -0.01802347	     -0.22838537	      3.23746444	     -0.01464397	     -0.19154539	      3.00621698	     -0.00901095	     -0.14550010	      2.77496952	     -0.11264314	     -1.06257341	     20.57806397	      0.00000000	      0.00000000	     -0.00000000	      0.00000000	      0.00000000	     11.96851962	    -17.24803004	     17.32029882	     34.33079996	     33.58148859	      0.00000000	      5.00004510	     -9.21327109	    -16.87492781	     27.07095552	     36.50121963	     54.18311883	      0.00000000	      5.00004510
